# xmcd CD database file
#
# Track frame offsets:
#	150
#	29710
#	81702
#	104265
#	127717
#	151320
#	172915
#	205710
#	232670
#	260475
#	291977
#	314462
#
# Disc length: 4627 seconds
#
# Revision: 4
# Processed by: cddbd v1.4PL0 Copyright (c) Steve Scherf et al.
# Submitted via: CDex 1.50beta10
#
DISCID=9e12110c
DTITLE=Kenny Dorham - Matador - Inta Somethin'
DYEAR=1961
DGENRE=Jazz
TTITLE0=El Matador
TTITLE1=Melanie
TTITLE2=Smile
TTITLE3=Beautiful Love
TTITLE4=There Goes My Heart
TTITLE5=Prelude
TTITLE6=Una Mas
TTITLE7=It Could Happen To You
TTITLE8=Let's Face The Music And Dance
TTITLE9=No Two People
TTITLE10=Lover Man
TTITLE11=San Francisco Beat
EXTD=YEAR: 1961
EXTT0=
EXTT1=
EXTT2=
EXTT3=
EXTT4=
EXTT5=
EXTT6=
EXTT7=
EXTT8=
EXTT9=
EXTT10=
EXTT11=
PLAYORDER=
